<?xml version="1.0" encoding="UTF-8" standalone="no"?><!DOCTYPE svg PUBLIC "-//W3C//DTD SVG 1.1//EN" "http://www.w3.org/Graphics/SVG/1.1/DTD/svg11.dtd"><!-- Generated by graphviz version 2.40.1 (20161225.0304)
 --><!-- Title: %0 Pages: 1 --><svg xmlns="http://www.w3.org/2000/svg" xmlns:xlink="http://www.w3.org/1999/xlink" width="1201pt" height="874pt" viewBox="0.00 0.00 1200.64 874.30">
<g id="graph0" class="graph" transform="scale(1 1) rotate(0) translate(4 870.3)">
<title>%0</title>
<polygon fill="#ffffff" stroke="transparent" points="-4,4 -4,-870.3 1196.6404,-870.3 1196.6404,4 -4,4"/>
<g id="clust1" class="cluster">
<title>clusterAbort</title>
<polygon fill="none" stroke="#000000" points="275.4732,-369.5 275.4732,-722.5 853.0523,-722.5 853.0523,-369.5 275.4732,-369.5"/>
<text text-anchor="middle" x="564.2628" y="-705.9" font-family="Times,serif" font-size="14.00" fill="#000000">Abort</text>
</g>
<g id="clust2" class="cluster">
<title>clusterRunning</title>
<polygon fill="none" stroke="#000000" points="39.2073,-534.5 39.2073,-612.5 110.8637,-612.5 110.8637,-534.5 39.2073,-534.5"/>
<text text-anchor="middle" x="75.0355" y="-595.9" font-family="Times,serif" font-size="14.00" fill="#000000">Running</text>
</g>
<!-- InitializeFailed -->
<g id="node1" class="node">
<title>InitializeFailed</title>
<path fill="none" stroke="#000000" d="M295.4732,-378.5C295.4732,-378.5 372.2236,-378.5 372.2236,-378.5 378.2236,-378.5 384.2236,-384.5 384.2236,-390.5 384.2236,-390.5 384.2236,-402.5 384.2236,-402.5 384.2236,-408.5 378.2236,-414.5 372.2236,-414.5 372.2236,-414.5 295.4732,-414.5 295.4732,-414.5 289.4732,-414.5 283.4732,-408.5 283.4732,-402.5 283.4732,-402.5 283.4732,-390.5 283.4732,-390.5 283.4732,-384.5 289.4732,-378.5 295.4732,-378.5"/>
<text text-anchor="middle" x="333.8484" y="-392.4" font-family="Times,serif" font-size="14.00" fill="#000000">InitializeFailed</text>
</g>
<!-- ResetFailed -->
<g id="node7" class="node">
<title>ResetFailed</title>
<path fill="none" stroke="#000000" d="M774.9583,-490.5C774.9583,-490.5 833.0523,-490.5 833.0523,-490.5 839.0523,-490.5 845.0523,-496.5 845.0523,-502.5 845.0523,-502.5 845.0523,-514.5 845.0523,-514.5 845.0523,-520.5 839.0523,-526.5 833.0523,-526.5 833.0523,-526.5 774.9583,-526.5 774.9583,-526.5 768.9583,-526.5 762.9583,-520.5 762.9583,-514.5 762.9583,-514.5 762.9583,-502.5 762.9583,-502.5 762.9583,-496.5 768.9583,-490.5 774.9583,-490.5"/>
<text text-anchor="middle" x="804.0053" y="-504.4" font-family="Times,serif" font-size="14.00" fill="#000000">ResetFailed</text>
</g>
<!-- InitializeFailed&#45;&gt;ResetFailed -->
<g id="edge7" class="edge">
<title>InitializeFailed-&gt;ResetFailed</title>
<path fill="none" stroke="#000000" d="M377.1637,-414.6269C382.6149,-417.6085 387.96,-420.9113 392.772,-424.5 402.3584,-431.6493 399.9289,-439.4562 410.772,-444.5 432.8875,-454.7873 606.0681,-447.9762 630.1732,-451.7 681.8429,-459.6819 694.0114,-466.4311 743.4292,-483.5 746.7007,-484.63 750.0501,-485.8444 753.4127,-487.1073"/>
<polygon fill="#000000" stroke="#000000" points="752.281,-490.4223 762.8703,-490.7648 754.8059,-483.8934 752.281,-490.4223"/>
<text text-anchor="middle" x="576.3229" y="-455.7" font-family="Times,serif" font-size="14.00" fill="#000000">Reset [Function]</text>
</g>
<!-- Idle -->
<g id="node12" class="node">
<title>Idle</title>
<path fill="none" stroke="#000000" d="M561.3229,-280.5C561.3229,-280.5 591.3229,-280.5 591.3229,-280.5 597.3229,-280.5 603.3229,-286.5 603.3229,-292.5 603.3229,-292.5 603.3229,-304.5 603.3229,-304.5 603.3229,-310.5 597.3229,-316.5 591.3229,-316.5 591.3229,-316.5 561.3229,-316.5 561.3229,-316.5 555.3229,-316.5 549.3229,-310.5 549.3229,-304.5 549.3229,-304.5 549.3229,-292.5 549.3229,-292.5 549.3229,-286.5 555.3229,-280.5 561.3229,-280.5"/>
<text text-anchor="middle" x="576.3229" y="-294.4" font-family="Times,serif" font-size="14.00" fill="#000000">Idle</text>
</g>
<!-- InitializeFailed&#45;&gt;Idle -->
<g id="edge8" class="edge">
<title>InitializeFailed-&gt;Idle</title>
<path fill="none" stroke="#000000" d="M337.9023,-378.3296C348.5465,-332.4361 378.6902,-213.9202 410.772,-191.7 445.0071,-167.9884 471.2151,-166.6357 504.4726,-191.7 527.66,-209.175 506.5017,-230.2521 522.4726,-254.5 527.4366,-262.0366 534.093,-268.9234 541.0301,-274.8973"/>
<polygon fill="#000000" stroke="#000000" points="539.2302,-277.9408 549.2182,-281.4749 543.6141,-272.4835 539.2302,-277.9408"/>
<text text-anchor="middle" x="457.6223" y="-196.7" font-family="Times,serif" font-size="14.00" fill="#000000">Reset [Function]</text>
</g>
<!-- StartFailed -->
<g id="node2" class="node">
<title>StartFailed</title>
<path fill="none" stroke="#000000" d="M307.1324,-433.5C307.1324,-433.5 360.5644,-433.5 360.5644,-433.5 366.5644,-433.5 372.5644,-439.5 372.5644,-445.5 372.5644,-445.5 372.5644,-457.5 372.5644,-457.5 372.5644,-463.5 366.5644,-469.5 360.5644,-469.5 360.5644,-469.5 307.1324,-469.5 307.1324,-469.5 301.1324,-469.5 295.1324,-463.5 295.1324,-457.5 295.1324,-457.5 295.1324,-445.5 295.1324,-445.5 295.1324,-439.5 301.1324,-433.5 307.1324,-433.5"/>
<text text-anchor="middle" x="333.8484" y="-447.4" font-family="Times,serif" font-size="14.00" fill="#000000">StartFailed</text>
</g>
<!-- StartFailed&#45;&gt;ResetFailed -->
<g id="edge13" class="edge">
<title>StartFailed-&gt;ResetFailed</title>
<path fill="none" stroke="#000000" d="M372.7018,-455.7898C429.3484,-462.0883 537.9144,-474.3263 630.1732,-485.7 671.3754,-490.7794 718.0168,-496.9182 752.6064,-501.5458"/>
<polygon fill="#000000" stroke="#000000" points="752.5584,-505.0706 762.9348,-502.9306 753.4886,-498.1327 752.5584,-505.0706"/>
<text text-anchor="middle" x="576.3229" y="-489.7" font-family="Times,serif" font-size="14.00" fill="#000000">Reset [Function]</text>
</g>
<!-- StartFailed&#45;&gt;Idle -->
<g id="edge14" class="edge">
<title>StartFailed-&gt;Idle</title>
<path fill="none" stroke="#000000" d="M372.8266,-440.492C380.5158,-436.6134 387.7495,-431.4218 392.772,-424.5 413.3703,-396.1126 384.5954,-291.0435 410.772,-267.7 446.1733,-236.1301 503.2006,-256.9495 540.221,-276.432"/>
<polygon fill="#000000" stroke="#000000" points="538.7225,-279.6016 549.1765,-281.3236 542.0781,-273.4583 538.7225,-279.6016"/>
<text text-anchor="middle" x="457.6223" y="-271.7" font-family="Times,serif" font-size="14.00" fill="#000000">Reset [Function]</text>
</g>
<!-- PauseFailed -->
<g id="node3" class="node">
<title>PauseFailed</title>
<path fill="none" stroke="#000000" d="M304.0237,-598.5C304.0237,-598.5 363.6731,-598.5 363.6731,-598.5 369.6731,-598.5 375.6731,-604.5 375.6731,-610.5 375.6731,-610.5 375.6731,-622.5 375.6731,-622.5 375.6731,-628.5 369.6731,-634.5 363.6731,-634.5 363.6731,-634.5 304.0237,-634.5 304.0237,-634.5 298.0237,-634.5 292.0237,-628.5 292.0237,-622.5 292.0237,-622.5 292.0237,-610.5 292.0237,-610.5 292.0237,-604.5 298.0237,-598.5 304.0237,-598.5"/>
<text text-anchor="middle" x="333.8484" y="-612.4" font-family="Times,serif" font-size="14.00" fill="#000000">PauseFailed</text>
</g>
<!-- PauseFailed&#45;&gt;ResetFailed -->
<g id="edge26" class="edge">
<title>PauseFailed-&gt;ResetFailed</title>
<path fill="none" stroke="#000000" d="M375.8541,-609.9744C433.5501,-600.6909 540.3857,-582.351 630.1732,-560.5 671.9592,-550.3308 718.6151,-536.219 753.0627,-525.2619"/>
<polygon fill="#000000" stroke="#000000" points="754.4335,-528.4981 762.8906,-522.1161 752.2996,-521.8313 754.4335,-528.4981"/>
<text text-anchor="middle" x="576.3229" y="-586.7" font-family="Times,serif" font-size="14.00" fill="#000000">Reset [Function]</text>
</g>
<!-- PauseFailed&#45;&gt;Idle -->
<g id="edge27" class="edge">
<title>PauseFailed-&gt;Idle</title>
<path fill="none" stroke="#000000" d="M375.9606,-603.9823C382.4947,-600.2985 388.4868,-595.5658 392.772,-589.5 418.7497,-552.728 381.4753,-421.8867 410.772,-387.7 438.689,-355.1233 466.6763,-384.7987 504.4726,-364.5 523.4843,-354.2897 541.3688,-337.895 554.5392,-324.0007"/>
<polygon fill="#000000" stroke="#000000" points="557.1571,-326.3245 561.3483,-316.5939 552.0037,-321.5871 557.1571,-326.3245"/>
<text text-anchor="middle" x="457.6223" y="-391.7" font-family="Times,serif" font-size="14.00" fill="#000000">Reset [Function]</text>
</g>
<!-- ResumeFailed -->
<g id="node4" class="node">
<title>ResumeFailed</title>
<path fill="none" stroke="#000000" d="M297.8014,-543.5C297.8014,-543.5 369.8954,-543.5 369.8954,-543.5 375.8954,-543.5 381.8954,-549.5 381.8954,-555.5 381.8954,-555.5 381.8954,-567.5 381.8954,-567.5 381.8954,-573.5 375.8954,-579.5 369.8954,-579.5 369.8954,-579.5 297.8014,-579.5 297.8014,-579.5 291.8014,-579.5 285.8014,-573.5 285.8014,-567.5 285.8014,-567.5 285.8014,-555.5 285.8014,-555.5 285.8014,-549.5 291.8014,-543.5 297.8014,-543.5"/>
<text text-anchor="middle" x="333.8484" y="-557.4" font-family="Times,serif" font-size="14.00" fill="#000000">ResumeFailed</text>
</g>
<!-- ResumeFailed&#45;&gt;ResetFailed -->
<g id="edge28" class="edge">
<title>ResumeFailed-&gt;ResetFailed</title>
<path fill="none" stroke="#000000" d="M382.1007,-556.181C440.752,-549.7031 542.7341,-538.3989 630.1732,-528.5 671.3433,-523.8392 717.9868,-518.4677 752.5854,-514.4658"/>
<polygon fill="#000000" stroke="#000000" points="753.3855,-517.8966 762.9168,-513.2701 752.5807,-510.9431 753.3855,-517.8966"/>
<text text-anchor="middle" x="576.3229" y="-543.7" font-family="Times,serif" font-size="14.00" fill="#000000">Reset [Function]</text>
</g>
<!-- ResumeFailed&#45;&gt;Idle -->
<g id="edge29" class="edge">
<title>ResumeFailed-&gt;Idle</title>
<path fill="none" stroke="#000000" d="M381.9657,-545.117C386.1109,-542.1346 389.8356,-538.6253 392.772,-534.5 416.9554,-500.5245 383.5229,-379.2699 410.772,-347.7 438.8045,-315.2226 463.4232,-336.9717 504.4726,-324.5 516.0567,-320.9805 528.5131,-316.6659 539.7476,-312.5705"/>
<polygon fill="#000000" stroke="#000000" points="541.0891,-315.8061 549.2531,-309.0534 538.6599,-309.2411 541.0891,-315.8061"/>
<text text-anchor="middle" x="457.6223" y="-351.7" font-family="Times,serif" font-size="14.00" fill="#000000">Reset [Function]</text>
</g>
<!-- PurgeFailed -->
<g id="node5" class="node">
<title>PurgeFailed</title>
<path fill="none" stroke="#000000" d="M304.023,-488.5C304.023,-488.5 363.6738,-488.5 363.6738,-488.5 369.6738,-488.5 375.6738,-494.5 375.6738,-500.5 375.6738,-500.5 375.6738,-512.5 375.6738,-512.5 375.6738,-518.5 369.6738,-524.5 363.6738,-524.5 363.6738,-524.5 304.023,-524.5 304.023,-524.5 298.023,-524.5 292.023,-518.5 292.023,-512.5 292.023,-512.5 292.023,-500.5 292.023,-500.5 292.023,-494.5 298.023,-488.5 304.023,-488.5"/>
<text text-anchor="middle" x="333.8484" y="-502.4" font-family="Times,serif" font-size="14.00" fill="#000000">PurgeFailed</text>
</g>
<!-- PurgeFailed&#45;&gt;ResetFailed -->
<g id="edge30" class="edge">
<title>PurgeFailed-&gt;ResetFailed</title>
<path fill="none" stroke="#000000" d="M375.9855,-506.6792C462.3414,-507.0466 659.1349,-507.8837 752.7247,-508.2819"/>
<polygon fill="#000000" stroke="#000000" points="752.7888,-511.7821 762.8036,-508.3247 752.8187,-504.7821 752.7888,-511.7821"/>
<text text-anchor="middle" x="576.3229" y="-511.7" font-family="Times,serif" font-size="14.00" fill="#000000">Reset [Function]</text>
</g>
<!-- PurgeFailed&#45;&gt;Idle -->
<g id="edge31" class="edge">
<title>PurgeFailed-&gt;Idle</title>
<path fill="none" stroke="#000000" d="M375.8835,-493.9274C382.4254,-490.2491 388.4401,-485.5325 392.772,-479.5 415.1622,-448.3195 382.9733,-334.1721 410.772,-307.7 428.5376,-290.7822 496.0346,-292.314 539.1646,-295.2273"/>
<polygon fill="#000000" stroke="#000000" points="539.0664,-298.7294 549.2947,-295.9666 539.576,-291.7479 539.0664,-298.7294"/>
<text text-anchor="middle" x="457.6223" y="-311.7" font-family="Times,serif" font-size="14.00" fill="#000000">Reset [Function]</text>
</g>
<!-- EndFailed -->
<g id="node6" class="node">
<title>EndFailed</title>
<path fill="none" stroke="#000000" d="M309.0756,-653.5C309.0756,-653.5 358.6212,-653.5 358.6212,-653.5 364.6212,-653.5 370.6212,-659.5 370.6212,-665.5 370.6212,-665.5 370.6212,-677.5 370.6212,-677.5 370.6212,-683.5 364.6212,-689.5 358.6212,-689.5 358.6212,-689.5 309.0756,-689.5 309.0756,-689.5 303.0756,-689.5 297.0756,-683.5 297.0756,-677.5 297.0756,-677.5 297.0756,-665.5 297.0756,-665.5 297.0756,-659.5 303.0756,-653.5 309.0756,-653.5"/>
<text text-anchor="middle" x="333.8484" y="-667.4" font-family="Times,serif" font-size="14.00" fill="#000000">EndFailed</text>
</g>
<!-- EndFailed&#45;&gt;ResetFailed -->
<g id="edge32" class="edge">
<title>EndFailed-&gt;ResetFailed</title>
<path fill="none" stroke="#000000" d="M370.6916,-665.9796C427.5403,-656.8133 539.5514,-636.1614 630.1732,-603.5 683.1866,-584.3932 694.3388,-574.17 743.4292,-546.5 751.3655,-542.0267 759.7294,-536.9955 767.6237,-532.0938"/>
<polygon fill="#000000" stroke="#000000" points="769.6823,-534.934 776.2891,-526.6514 765.9592,-529.0061 769.6823,-534.934"/>
<text text-anchor="middle" x="576.3229" y="-638.7" font-family="Times,serif" font-size="14.00" fill="#000000">Reset [Function]</text>
</g>
<!-- EndFailed&#45;&gt;Idle -->
<g id="edge33" class="edge">
<title>EndFailed-&gt;Idle</title>
<path fill="none" stroke="#000000" d="M370.6668,-659.4669C378.6457,-655.6115 386.5473,-650.6879 392.772,-644.5 476.2121,-561.5535 454.9983,-511.2458 504.4726,-404.5 512.5003,-387.1795 512.4177,-381.7279 522.4726,-365.5 531.3496,-351.1732 542.8748,-336.4474 552.9839,-324.4631"/>
<polygon fill="#000000" stroke="#000000" points="555.8417,-326.5077 559.7063,-316.6428 550.5334,-321.9446 555.8417,-326.5077"/>
<text text-anchor="middle" x="457.6223" y="-628.7" font-family="Times,serif" font-size="14.00" fill="#000000">Reset [Function]</text>
</g>
<!-- ResetFailed&#45;&gt;Idle -->
<g id="edge35" class="edge">
<title>ResetFailed-&gt;Idle</title>
<path fill="none" stroke="#000000" d="M800.5017,-490.2151C794.1724,-462.2879 778.1273,-409.249 743.4292,-380.7 709.6983,-352.9467 687.2364,-376.047 648.1732,-356.5 631.3145,-348.064 614.7833,-335.14 601.836,-323.6312"/>
<polygon fill="#000000" stroke="#000000" points="604.0057,-320.8723 594.2666,-316.7009 599.2787,-326.0353 604.0057,-320.8723"/>
<text text-anchor="middle" x="695.8012" y="-384.7" font-family="Times,serif" font-size="14.00" fill="#000000">Reset [Function]</text>
</g>
<!-- Abort -->
<g id="node14" class="node">
<title>Abort</title>
<path fill="none" stroke="#000000" d="M1150.6404,-489.5C1150.6404,-489.5 1180.6404,-489.5 1180.6404,-489.5 1186.6404,-489.5 1192.6404,-495.5 1192.6404,-501.5 1192.6404,-501.5 1192.6404,-513.5 1192.6404,-513.5 1192.6404,-519.5 1186.6404,-525.5 1180.6404,-525.5 1180.6404,-525.5 1150.6404,-525.5 1150.6404,-525.5 1144.6404,-525.5 1138.6404,-519.5 1138.6404,-513.5 1138.6404,-513.5 1138.6404,-501.5 1138.6404,-501.5 1138.6404,-495.5 1144.6404,-489.5 1150.6404,-489.5"/>
<text text-anchor="middle" x="1165.6404" y="-503.4" font-family="Times,serif" font-size="14.00" fill="#000000">Abort</text>
</g>
<!-- ResetFailed&#45;&gt;Abort -->
<g id="edge34" class="edge">
<title>ResetFailed-&gt;Abort</title>
<path fill="none" stroke="#000000" d="M845.0744,-500.3296C897.3791,-491.0274 990.5184,-478.1604 1069.9826,-486.7 1089.4761,-488.7949 1110.8255,-493.2254 1128.3998,-497.4612"/>
<polygon fill="#000000" stroke="#000000" points="1127.7196,-500.8986 1138.2685,-499.9136 1129.4078,-494.1052 1127.7196,-500.8986"/>
<text text-anchor="middle" x="1023.1323" y="-490.7" font-family="Times,serif" font-size="14.00" fill="#000000">Reset [Function]</text>
</g>
<!-- Paused -->
<g id="node8" class="node">
<title>Paused</title>
<path fill="none" stroke="#000000" d="M59.2073,-543.5C59.2073,-543.5 90.8637,-543.5 90.8637,-543.5 96.8637,-543.5 102.8637,-549.5 102.8637,-555.5 102.8637,-555.5 102.8637,-567.5 102.8637,-567.5 102.8637,-573.5 96.8637,-579.5 90.8637,-579.5 90.8637,-579.5 59.2073,-579.5 59.2073,-579.5 53.2073,-579.5 47.2073,-573.5 47.2073,-567.5 47.2073,-567.5 47.2073,-555.5 47.2073,-555.5 47.2073,-549.5 53.2073,-543.5 59.2073,-543.5"/>
<text text-anchor="middle" x="75.0355" y="-557.4" font-family="Times,serif" font-size="14.00" fill="#000000">Paused</text>
</g>
<!-- Paused&#45;&gt;ResumeFailed -->
<g id="edge22" class="edge">
<title>Paused-&gt;ResumeFailed</title>
<path fill="none" stroke="#000000" d="M103.2257,-561.5C144.3346,-561.5 221.674,-561.5 275.3968,-561.5"/>
<polygon fill="#000000" stroke="#000000" points="275.4737,-565.0001 285.4737,-561.5 275.4736,-558.0001 275.4737,-565.0001"/>
<text text-anchor="middle" x="192.1979" y="-565.7" font-family="Times,serif" font-size="14.00" fill="#000000">Resume [Function]</text>
</g>
<!-- Paused&#45;&gt;PurgeFailed -->
<g id="edge24" class="edge">
<title>Paused-&gt;PurgeFailed</title>
<path fill="none" stroke="#000000" d="M102.9584,-549.1469C110.7755,-546.041 119.3559,-542.9541 127.471,-540.7 179.0337,-526.3779 239.6119,-517.2125 281.7443,-512.0125"/>
<polygon fill="#000000" stroke="#000000" points="282.2638,-515.4754 291.7744,-510.8065 281.4281,-508.5254 282.2638,-515.4754"/>
<text text-anchor="middle" x="192.1979" y="-544.7" font-family="Times,serif" font-size="14.00" fill="#000000">Purge [Function]</text>
</g>
<!-- Paused&#45;&gt;Idle -->
<g id="edge25" class="edge">
<title>Paused-&gt;Idle</title>
<path fill="none" stroke="#000000" d="M83.5191,-543.0967C115.1736,-476.9646 233.7275,-250.9705 410.772,-169.5 448.6034,-152.0911 471.9183,-143.5288 504.4726,-169.5 532.6229,-191.9578 504.4783,-217.3071 522.4726,-248.5 527.7796,-257.6997 535.3298,-266.2036 543.103,-273.4913"/>
<polygon fill="#000000" stroke="#000000" points="541.063,-276.3592 550.8756,-280.3545 545.6962,-271.1119 541.063,-276.3592"/>
<text text-anchor="middle" x="333.8484" y="-266.7" font-family="Times,serif" font-size="14.00" fill="#000000">Purge [Function]</text>
</g>
<!-- Running -->
<g id="node15" class="node">
<title>Running</title>
<path fill="none" stroke="#000000" d="M1003.0187,-692.5C1003.0187,-692.5 1043.2459,-692.5 1043.2459,-692.5 1049.2459,-692.5 1055.2459,-698.5 1055.2459,-704.5 1055.2459,-704.5 1055.2459,-716.5 1055.2459,-716.5 1055.2459,-722.5 1049.2459,-728.5 1043.2459,-728.5 1043.2459,-728.5 1003.0187,-728.5 1003.0187,-728.5 997.0187,-728.5 991.0187,-722.5 991.0187,-716.5 991.0187,-716.5 991.0187,-704.5 991.0187,-704.5 991.0187,-698.5 997.0187,-692.5 1003.0187,-692.5"/>
<text text-anchor="middle" x="1023.1323" y="-706.4" font-family="Times,serif" font-size="14.00" fill="#000000">Running</text>
</g>
<!-- Paused&#45;&gt;Running -->
<g id="edge23" class="edge">
<title>Paused-&gt;Running</title>
<path fill="none" stroke="#000000" d="M76.3492,-579.527C79.621,-612.7755 90.7411,-684.5461 127.471,-730.5 193.5768,-813.2068 227.9692,-849.5 333.8484,-849.5 333.8484,-849.5 333.8484,-849.5 804.0053,-849.5 878.7596,-849.5 897.6001,-826.1568 958.282,-782.5 975.7478,-769.9345 991.9485,-751.9531 1003.7887,-737.1037"/>
<polygon fill="#000000" stroke="#000000" points="1006.8744,-738.8357 1010.2327,-728.7872 1001.3411,-734.5482 1006.8744,-738.8357"/>
<text text-anchor="middle" x="576.3229" y="-853.7" font-family="Times,serif" font-size="14.00" fill="#000000">Resume [Function]</text>
</g>
<!-- PowerOn -->
<g id="node9" class="node">
<title>PowerOn</title>
<path fill="none" stroke="#000000" d="M52.6,-32.5C52.6,-32.5 97.471,-32.5 97.471,-32.5 103.471,-32.5 109.471,-38.5 109.471,-44.5 109.471,-44.5 109.471,-56.5 109.471,-56.5 109.471,-62.5 103.471,-68.5 97.471,-68.5 97.471,-68.5 52.6,-68.5 52.6,-68.5 46.6,-68.5 40.6,-62.5 40.6,-56.5 40.6,-56.5 40.6,-44.5 40.6,-44.5 40.6,-38.5 46.6,-32.5 52.6,-32.5"/>
<text text-anchor="middle" x="75.0355" y="-46.4" font-family="Times,serif" font-size="14.00" fill="#000000">PowerOn</text>
</g>
<!-- ServerOpen -->
<g id="node10" class="node">
<title>ServerOpen</title>
<path fill="none" stroke="#000000" d="M304.4213,-.5C304.4213,-.5 363.2755,-.5 363.2755,-.5 369.2755,-.5 375.2755,-6.5 375.2755,-12.5 375.2755,-12.5 375.2755,-24.5 375.2755,-24.5 375.2755,-30.5 369.2755,-36.5 363.2755,-36.5 363.2755,-36.5 304.4213,-36.5 304.4213,-36.5 298.4213,-36.5 292.4213,-30.5 292.4213,-24.5 292.4213,-24.5 292.4213,-12.5 292.4213,-12.5 292.4213,-6.5 298.4213,-.5 304.4213,-.5"/>
<text text-anchor="middle" x="333.8484" y="-14.4" font-family="Times,serif" font-size="14.00" fill="#000000">ServerOpen</text>
</g>
<!-- PowerOn&#45;&gt;ServerOpen -->
<g id="edge1" class="edge">
<title>PowerOn-&gt;ServerOpen</title>
<path fill="none" stroke="#000000" d="M109.7525,-38.9045C115.6144,-37.2746 121.6774,-35.7872 127.471,-34.7 179.5725,-24.9226 240.1471,-21.0342 282.1345,-19.4944"/>
<polygon fill="#000000" stroke="#000000" points="282.5149,-22.9837 292.3923,-19.1514 282.2809,-15.9876 282.5149,-22.9837"/>
<text text-anchor="middle" x="192.1979" y="-39.7" font-family="Times,serif" font-size="14.00" fill="#000000">OpenServer [Function]</text>
</g>
<!-- ServerOpenFailed -->
<g id="node11" class="node">
<title>ServerOpenFailed</title>
<path fill="none" stroke="#000000" d="M286.9248,-55.5C286.9248,-55.5 380.772,-55.5 380.772,-55.5 386.772,-55.5 392.772,-61.5 392.772,-67.5 392.772,-67.5 392.772,-79.5 392.772,-79.5 392.772,-85.5 386.772,-91.5 380.772,-91.5 380.772,-91.5 286.9248,-91.5 286.9248,-91.5 280.9248,-91.5 274.9248,-85.5 274.9248,-79.5 274.9248,-79.5 274.9248,-67.5 274.9248,-67.5 274.9248,-61.5 280.9248,-55.5 286.9248,-55.5"/>
<text text-anchor="middle" x="333.8484" y="-69.4" font-family="Times,serif" font-size="14.00" fill="#000000">ServerOpenFailed</text>
</g>
<!-- PowerOn&#45;&gt;ServerOpenFailed -->
<g id="edge2" class="edge">
<title>PowerOn-&gt;ServerOpenFailed</title>
<path fill="none" stroke="#000000" d="M109.6716,-53.578C149.1042,-57.0823 214.5254,-62.8961 264.545,-67.3412"/>
<polygon fill="#000000" stroke="#000000" points="264.3796,-70.8402 274.6502,-68.2392 264.9993,-63.8677 264.3796,-70.8402"/>
<text text-anchor="middle" x="192.1979" y="-70.7" font-family="Times,serif" font-size="14.00" fill="#000000">OpenServer [Function]</text>
</g>
<!-- ServerOpen&#45;&gt;Idle -->
<g id="edge3" class="edge">
<title>ServerOpen-&gt;Idle</title>
<path fill="none" stroke="#000000" d="M375.3308,-25.7565C415.2944,-35.0848 474.039,-55.4259 504.4726,-97.7 545.4562,-154.6288 488.8418,-192.941 522.4726,-254.5 527.0209,-262.8253 533.8505,-270.1853 541.1326,-276.3882"/>
<polygon fill="#000000" stroke="#000000" points="539.0964,-279.2393 549.1253,-282.6557 543.4159,-273.7308 539.0964,-279.2393"/>
<text text-anchor="middle" x="457.6223" y="-102.7" font-family="Times,serif" font-size="14.00" fill="#000000">Connect</text>
</g>
<!-- Idle&#45;&gt;InitializeFailed -->
<g id="edge4" class="edge">
<title>Idle-&gt;InitializeFailed</title>
<path fill="none" stroke="#000000" d="M551.1265,-280.4176C541.5997,-272.9597 531.007,-263.8734 522.4726,-254.5 512.8127,-243.8905 517.1348,-234.4486 504.4726,-227.7 467.7218,-208.1127 445.7967,-205.171 410.772,-227.7 362.2668,-258.9001 343.9813,-329.0513 337.372,-368.3905"/>
<polygon fill="#000000" stroke="#000000" points="333.8965,-367.9639 335.8342,-378.3801 340.815,-369.029 333.8965,-367.9639"/>
<text text-anchor="middle" x="457.6223" y="-232.7" font-family="Times,serif" font-size="14.00" fill="#000000">Init [Function]</text>
</g>
<!-- Idle&#45;&gt;Idle -->
<g id="edge6" class="edge">
<title>Idle-&gt;Idle</title>
<path fill="none" stroke="#000000" d="M555.1108,-316.5287C551.5061,-326.1943 558.5768,-335 576.3229,-335 587.4142,-335 594.3354,-331.5603 597.0866,-326.6207"/>
<polygon fill="#000000" stroke="#000000" points="600.5876,-326.6742 597.535,-316.5287 593.5945,-326.3634 600.5876,-326.6742"/>
<text text-anchor="middle" x="576.3229" y="-339.2" font-family="Times,serif" font-size="14.00" fill="#000000">Error []</text>
</g>
<!-- Ready -->
<g id="node13" class="node">
<title>Ready</title>
<path fill="none" stroke="#000000" d="M789.0053,-233.5C789.0053,-233.5 819.0053,-233.5 819.0053,-233.5 825.0053,-233.5 831.0053,-239.5 831.0053,-245.5 831.0053,-245.5 831.0053,-257.5 831.0053,-257.5 831.0053,-263.5 825.0053,-269.5 819.0053,-269.5 819.0053,-269.5 789.0053,-269.5 789.0053,-269.5 783.0053,-269.5 777.0053,-263.5 777.0053,-257.5 777.0053,-257.5 777.0053,-245.5 777.0053,-245.5 777.0053,-239.5 783.0053,-233.5 789.0053,-233.5"/>
<text text-anchor="middle" x="804.0053" y="-247.4" font-family="Times,serif" font-size="14.00" fill="#000000">Ready</text>
</g>
<!-- Idle&#45;&gt;Ready -->
<g id="edge5" class="edge">
<title>Idle-&gt;Ready</title>
<path fill="none" stroke="#000000" d="M603.6143,-284.4939C616.7552,-278.3554 632.9361,-271.6602 648.1732,-267.7 687.7898,-257.4034 734.6791,-253.6143 766.6008,-252.24"/>
<polygon fill="#000000" stroke="#000000" points="766.9572,-255.7293 776.8204,-251.8606 766.6974,-248.7341 766.9572,-255.7293"/>
<text text-anchor="middle" x="695.8012" y="-271.7" font-family="Times,serif" font-size="14.00" fill="#000000">Init [Function]</text>
</g>
<!-- Ready&#45;&gt;StartFailed -->
<g id="edge11" class="edge">
<title>Ready-&gt;StartFailed</title>
<path fill="none" stroke="#000000" d="M776.7797,-246.6966C696.6994,-233.2416 464.218,-199.2135 410.772,-247.5 381.4355,-274.0044 415.7837,-392.3508 392.772,-424.5 389.6989,-428.7934 385.7727,-432.42 381.4096,-435.48"/>
<polygon fill="#000000" stroke="#000000" points="379.4178,-432.5915 372.5896,-440.6926 382.9793,-438.6178 379.4178,-432.5915"/>
<text text-anchor="middle" x="576.3229" y="-231.7" font-family="Times,serif" font-size="14.00" fill="#000000">Start [Function]</text>
</g>
<!-- Ready&#45;&gt;Running -->
<g id="edge12" class="edge">
<title>Ready-&gt;Running</title>
<path fill="none" stroke="#000000" d="M831.1548,-243.3664C865.7879,-234.8519 925.1548,-226.8261 958.282,-259.7 981.6544,-282.8937 970.4793,-523.0879 976.282,-555.5 984.4273,-600.9969 1001.4347,-651.9874 1012.5612,-682.6487"/>
<polygon fill="#000000" stroke="#000000" points="1009.3491,-684.0546 1016.0878,-692.2302 1015.9182,-681.6367 1009.3491,-684.0546"/>
<text text-anchor="middle" x="911.4317" y="-263.7" font-family="Times,serif" font-size="14.00" fill="#000000">Start [Function]</text>
</g>
<!-- Abort&#45;&gt;ResetFailed -->
<g id="edge9" class="edge">
<title>Abort-&gt;ResetFailed</title>
<path fill="none" stroke="#000000" d="M1138.3913,-507.5753C1078.1716,-507.7419 932.9542,-508.1434 855.19,-508.3585"/>
<polygon fill="#000000" stroke="#000000" points="855.1276,-504.8585 845.1374,-508.3863 855.147,-511.8585 855.1276,-504.8585"/>
<text text-anchor="middle" x="1023.1323" y="-511.7" font-family="Times,serif" font-size="14.00" fill="#000000">Reset [Function]</text>
</g>
<!-- Abort&#45;&gt;Idle -->
<g id="edge10" class="edge">
<title>Abort-&gt;Idle</title>
<path fill="none" stroke="#000000" d="M1148.9627,-489.4116C1115.9792,-454.753 1038.622,-378.8686 958.282,-338.7 843.4088,-281.2655 685.1704,-287.5005 613.851,-294.1095"/>
<polygon fill="#000000" stroke="#000000" points="613.1811,-290.6585 603.5723,-295.1217 613.8672,-297.6248 613.1811,-290.6585"/>
<text text-anchor="middle" x="911.4317" y="-342.7" font-family="Times,serif" font-size="14.00" fill="#000000">Reset [Function]</text>
</g>
<!-- Running&#45;&gt;PauseFailed -->
<g id="edge16" class="edge">
<title>Running-&gt;PauseFailed</title>
<path fill="none" stroke="#000000" d="M990.7767,-708.0121C910.932,-701.6412 698.2402,-683.2618 522.4726,-655.5 475.93,-648.1488 423.4771,-637.0745 385.7209,-628.6028"/>
<polygon fill="#000000" stroke="#000000" points="386.4914,-625.1887 375.9659,-626.3985 384.9485,-632.0166 386.4914,-625.1887"/>
<text text-anchor="middle" x="695.8012" y="-687.7" font-family="Times,serif" font-size="14.00" fill="#000000">Pause [Function]</text>
</g>
<!-- Running&#45;&gt;EndFailed -->
<g id="edge18" class="edge">
<title>Running-&gt;EndFailed</title>
<path fill="none" stroke="#000000" d="M990.8312,-718.7152C897.8447,-740.828 622.6397,-795.4366 410.772,-726.5 391.9795,-720.3854 373.852,-707.8605 359.9193,-696.3057"/>
<polygon fill="#000000" stroke="#000000" points="362.0855,-693.5521 352.2273,-689.6704 357.5131,-698.8525 362.0855,-693.5521"/>
<text text-anchor="middle" x="695.8012" y="-763.7" font-family="Times,serif" font-size="14.00" fill="#000000">End [Function]</text>
</g>
<!-- Running&#45;&gt;Paused -->
<g id="edge17" class="edge">
<title>Running-&gt;Paused</title>
<path fill="none" stroke="#000000" d="M996.4445,-728.5284C956.4517,-753.7464 877.7718,-796.5 804.0053,-796.5 333.8484,-796.5 333.8484,-796.5 333.8484,-796.5 211.4278,-796.5 121.2459,-650.6057 88.5012,-588.7248"/>
<polygon fill="#000000" stroke="#000000" points="91.4539,-586.8157 83.743,-579.5498 85.2399,-590.0384 91.4539,-586.8157"/>
<text text-anchor="middle" x="576.3229" y="-800.7" font-family="Times,serif" font-size="14.00" fill="#000000">Pause [Function]</text>
</g>
<!-- Running&#45;&gt;Idle -->
<g id="edge19" class="edge">
<title>Running-&gt;Idle</title>
<path fill="none" stroke="#000000" d="M1020.4942,-692.1913C1010.7935,-632.037 971.2895,-439.1682 853.0523,-348.7 779.6152,-292.5102 739.0859,-329.3875 648.1732,-312.5 636.8849,-310.4031 624.6156,-308.0427 613.4636,-305.8658"/>
<polygon fill="#000000" stroke="#000000" points="614.0828,-302.4207 603.5962,-303.9311 612.7359,-309.2899 614.0828,-302.4207"/>
<text text-anchor="middle" x="804.0053" y="-352.7" font-family="Times,serif" font-size="14.00" fill="#000000">End [Function]</text>
</g>
<!-- Running&#45;&gt;Abort -->
<g id="edge15" class="edge">
<title>Running-&gt;Abort</title>
<path fill="none" stroke="#000000" d="M1035.7789,-692.4851C1060.9629,-656.6111 1117.4864,-576.0945 1146.9596,-534.1105"/>
<polygon fill="#000000" stroke="#000000" points="1149.9362,-535.9619 1152.8172,-525.7663 1144.2069,-531.9399 1149.9362,-535.9619"/>
<text text-anchor="middle" x="1104.3115" y="-618.7" font-family="Times,serif" font-size="14.00" fill="#000000">Abort</text>
</g>
<!-- Running&#45;&gt;Running -->
<g id="edge20" class="edge">
<title>Running-&gt;Running</title>
<path fill="none" stroke="#000000" d="M1015.9417,-728.5287C1014.7198,-738.1943 1017.1167,-747 1023.1323,-747 1026.8921,-747 1029.2382,-743.5603 1030.1708,-738.6207"/>
<polygon fill="#000000" stroke="#000000" points="1033.6718,-738.5803 1030.3229,-728.5287 1026.6725,-738.4748 1033.6718,-738.5803"/>
<text text-anchor="middle" x="1023.1323" y="-751.2" font-family="Times,serif" font-size="14.00" fill="#000000">Warn []</text>
</g>
<!-- Running&#45;&gt;Running -->
<g id="edge21" class="edge">
<title>Running-&gt;Running</title>
<path fill="none" stroke="#000000" d="M1011.1068,-728.6447C1004.6707,-746.0256 1008.6792,-765 1023.1323,-765 1034.8755,-765 1039.7235,-752.4739 1037.6765,-738.4539"/>
<polygon fill="#000000" stroke="#000000" points="1041.0349,-737.46 1035.1578,-728.6447 1034.2549,-739.201 1041.0349,-737.46"/>
<text text-anchor="middle" x="1023.1323" y="-769.2" font-family="Times,serif" font-size="14.00" fill="#000000">Error []</text>
</g>
<!-- init -->
<g id="node16" class="node">
<title>init</title>
<ellipse fill="#000000" stroke="#000000" cx="1.8" cy="-50.5" rx="1.8" ry="1.8"/>
</g>
<!-- init&#45;&gt;PowerOn -->
<g id="edge36" class="edge">
<title>init-&gt;PowerOn</title>
<path fill="none" stroke="#000000" d="M3.6103,-50.5C7.7403,-50.5 18.4243,-50.5 30.3081,-50.5"/>
<polygon fill="#000000" stroke="#000000" points="30.4551,-54.0001 40.4551,-50.5 30.4551,-47.0001 30.4551,-54.0001"/>
</g>
</g>
</svg>