<?xml version="1.0" encoding="utf-8"?>
<!-- Generator: Adobe Illustrator 25.2.3, SVG Export Plug-In . SVG Version: 6.00 Build 0)  -->
<svg version="1.1" id="图层_1" xmlns="http://www.w3.org/2000/svg" xmlns:xlink="http://www.w3.org/1999/xlink" x="0px" y="0px"
	 viewBox="0 0 32 32" style="enable-background:new 0 0 32 32;" xml:space="preserve">
<style type="text/css">
	.st0{fill:#F94D47;}
</style>
<g>
	<g>
		<path class="st0" d="M16,0C7.16,0,0,7.16,0,16c0,8.84,7.16,16,16,16c8.84,0,16-7.16,16-16C32,7.16,24.84,0,16,0L16,0z
			 M21.12,19.92c0.42,0.42,0.42,1.1,0,1.5c-0.22,0.22-0.46,0.3-0.76,0.3c-0.3,0-0.56-0.08-0.76-0.3L16,17.8l-3.62,3.62
			c-0.22,0.22-0.46,0.3-0.76,0.3c-0.3,0-0.56-0.08-0.76-0.3c-0.2-0.2-0.32-0.47-0.32-0.75c0-0.28,0.11-0.55,0.32-0.75l3.62-3.62
			l-3.94-3.92c-0.2-0.2-0.32-0.47-0.32-0.75c0-0.28,0.11-0.55,0.32-0.75c0.42-0.42,1.1-0.42,1.5,0l3.92,3.92l3.92-3.92
			c0.42-0.42,1.1-0.42,1.5,0c0.42,0.42,0.42,1.1,0,1.5l-3.92,3.92L21.12,19.92z M21.12,19.92"/>
	</g>
</g>
</svg>
