<?xml version="1.0" encoding="utf-8"?>
<!-- Generator: Adobe Illustrator 25.2.3, SVG Export Plug-In . SVG Version: 6.00 Build 0)  -->
<svg version="1.1" id="图层_1" xmlns="http://www.w3.org/2000/svg" xmlns:xlink="http://www.w3.org/1999/xlink" x="0px" y="0px"
	 viewBox="0 0 32 32" style="enable-background:new 0 0 32 32;" xml:space="preserve">
<style type="text/css">
	.st0{fill:#FFB100;}
</style>
<g>
	<path class="st0" d="M31.09,13.84L18.16,0.91c-1.19-1.19-3.13-1.19-4.33,0L0.91,13.84c-1.19,1.19-1.19,3.13,0,4.33l12.93,12.93
		c1.19,1.19,3.13,1.19,4.33,0l12.93-12.93C32.28,16.97,32.28,15.03,31.09,13.84z M9.09,12.1c0.21-1.55,0.99-2.97,2.2-3.98
		c1.29-1.1,2.86-1.65,4.71-1.65c1.85,0,3.42,0.56,4.71,1.67c1.22,1.04,1.96,2.36,2.21,3.96c0.05,0.26,0.08,0.51,0.07,0.75
		c0,1.08-0.36,2.01-1.07,2.8c-0.7,0.78-1.68,1.35-2.94,1.71c-0.12,0.03-0.2,0.14-0.2,0.26c0,0.35-0.12,0.64-0.36,0.87
		c-0.27,0.27-0.64,0.41-1.02,0.41c-0.18,0.01-0.36-0.03-0.52-0.11c-0.07-0.03-0.14-0.03-0.21,0.01C16.44,18.93,16.18,19,15.92,19
		c-0.3,0-0.58-0.08-0.83-0.24c-0.03-0.02-0.05-0.02-0.08-0.02c-0.03,0-0.06,0.01-0.08,0.02c-0.18,0.1-0.37,0.15-0.58,0.14
		c-0.05,0-0.1,0-0.15-0.01c-0.33-0.02-0.65-0.16-0.88-0.39c-0.23-0.23-0.36-0.55-0.36-0.88c0-0.17-0.11-0.31-0.26-0.36
		c-0.53-0.17-1.03-0.4-1.5-0.69c-0.43-0.26-0.81-0.58-1.14-0.96C9.2,14.65,8.84,13.35,9.09,12.1z M21.65,24.06
		c-0.3,0.58,0.06,1.53-1,1.47c-0.75-0.04-0.15-1-1.45-1.58l-0.03-0.01l-0.13-0.08c-0.08-0.04-0.16-0.09-0.24-0.13
		c-0.41-0.19-0.83-0.37-1.25-0.55l-0.65-0.27c-0.58-0.24-1.23-0.24-1.8,0c-0.65,0.26-1.29,0.54-1.89,0.81
		c-0.13,0.06-0.39,0.21-0.41,0.22c-1.3,0.59-0.71,1.54-1.45,1.58c-1.06,0.07-0.69-0.89-1-1.47c-0.31-0.6-2.13-0.37-1.24-1.56
		c0.27-0.36,0.76-0.47,1.17-0.28c0.62,0.28,1.9-0.13,1.91-0.13c0.11-0.01,0.22-0.03,0.32-0.07c0.28-0.09,0.57-0.18,0.86-0.28
		c0.03-0.01,0.05-0.04,0.05-0.07s-0.02-0.06-0.05-0.07c-0.54-0.18-1.08-0.35-1.63-0.51c-0.25-0.07-0.49-0.13-0.75-0.17
		c-0.39-0.07-0.67-0.08-0.95,0.05c-0.43,0.19-0.85,0.73-1.12,0.02c-0.33-0.87,1.16-1.17,1.17-1.8c0.01-0.63-0.01-1.73,0.97-1.42
		c0.81,0.26,0.27,0.55,0.69,1.03c0.14,0.16,0.31,0.28,0.49,0.37c0.88,0.43,1.85,0.86,2.85,1.27c0.58,0.24,1.23,0.24,1.81,0
		c1-0.41,1.97-0.84,2.85-1.27c0.18-0.09,0.35-0.21,0.49-0.37c0.42-0.48-0.11-0.77,0.69-1.03c0.98-0.32,0.96,0.78,0.97,1.42
		c0.01,0.63,1.5,0.93,1.17,1.8c-0.27,0.72-0.69,0.17-1.12-0.01c-0.28-0.13-0.57-0.12-0.95-0.05c-0.25,0.04-0.5,0.1-0.75,0.17
		c-0.53,0.16-1.08,0.33-1.63,0.51c-0.03,0.01-0.05,0.04-0.05,0.07s0.02,0.06,0.05,0.07c0.29,0.1,0.58,0.19,0.86,0.28
		c0.1,0.03,0.21,0.05,0.32,0.07c0.01,0,1.29,0.41,1.91,0.13c0.41-0.2,0.9-0.08,1.17,0.28C23.78,23.69,21.96,23.46,21.65,24.06z"/>
	<path class="st0" d="M16.1,16.4c0.47,0,0.71-0.18,0.71-0.54c0-0.24-0.08-0.48-0.24-0.74c-0.15-0.26-0.32-0.39-0.5-0.39
		c-0.18,0-0.35,0.12-0.53,0.35c-0.18,0.24-0.27,0.47-0.27,0.71c0,0.15,0.04,0.27,0.13,0.37C15.56,16.32,15.79,16.4,16.1,16.4z"/>
	<path class="st0" d="M13.12,14.56c0.51,0.01,1-0.2,1.35-0.58c0.38-0.39,0.56-0.86,0.56-1.41c0-0.55-0.19-1.02-0.56-1.41
		c-0.35-0.38-0.84-0.59-1.35-0.58c-0.52,0-0.98,0.19-1.35,0.58c-0.37,0.38-0.57,0.88-0.56,1.41c0,0.55,0.19,1.02,0.56,1.41
		C12.14,14.36,12.59,14.56,13.12,14.56z"/>
	<path class="st0" d="M18.88,14.56c0.52,0.01,1.01-0.2,1.36-0.58c0.37-0.39,0.55-0.86,0.55-1.41c0-0.55-0.19-1.02-0.55-1.41
		c-0.35-0.38-0.84-0.59-1.36-0.58c-0.52,0-0.97,0.19-1.34,0.58c-0.37,0.39-0.55,0.86-0.55,1.41c0,0.55,0.18,1.02,0.55,1.41
		C17.91,14.36,18.36,14.56,18.88,14.56z"/>
</g>
</svg>
