<?xml version="1.0" encoding="utf-8"?>
<!-- Generator: Adobe Illustrator 25.2.3, SVG Export Plug-In . SVG Version: 6.00 Build 0)  -->
<svg version="1.1" id="图层_1" xmlns="http://www.w3.org/2000/svg" xmlns:xlink="http://www.w3.org/1999/xlink" x="0px" y="0px"
	 viewBox="0 0 32 32" style="enable-background:new 0 0 32 32;" xml:space="preserve">
<style type="text/css">
	.st0{fill:#FFB100;}
</style>
<g>
	<g>
		<path class="st0" d="M31.98,27.76c0,0.82-0.66,1.49-1.49,1.5H1.52c-0.4,0-0.79-0.15-1.07-0.43C0.16,28.55,0,28.16,0,27.76
			c0-0.29,0.08-0.57,0.24-0.82L14.71,3.42c0.27-0.42,0.74-0.68,1.25-0.69c0.53,0,1.01,0.28,1.28,0.73l14.51,23.52
			c0.17,0.22,0.26,0.49,0.25,0.77H31.98z M17.99,11.24c0.04-0.74-0.33-1.44-0.97-1.82c-0.63-0.38-1.43-0.38-2.06,0
			C14.33,9.8,13.96,10.5,14,11.24v7.52c-0.04,0.74,0.33,1.44,0.97,1.82c0.63,0.38,1.43,0.38,2.06,0c0.63-0.38,1.01-1.08,0.97-1.82
			V11.24z M16.02,22.26c-0.81,0-1.54,0.48-1.85,1.23c-0.31,0.75-0.14,1.61,0.43,2.18c0.57,0.57,1.43,0.74,2.18,0.44
			c0.75-0.31,1.24-1.04,1.24-1.85C18.02,23.15,17.12,22.26,16.02,22.26L16.02,22.26z M16.02,22.26"/>
	</g>
</g>
</svg>
