<?xml version="1.0" encoding="utf-8"?>
<!-- Generator: Adobe Illustrator 25.2.3, SVG Export Plug-In . SVG Version: 6.00 Build 0)  -->
<svg version="1.1" id="图层_1" xmlns="http://www.w3.org/2000/svg" xmlns:xlink="http://www.w3.org/1999/xlink" x="0px" y="0px"
	 viewBox="0 0 28 28" style="enable-background:new 0 0 28 28;" xml:space="preserve">
<style type="text/css">
	.st0{fill:#666666;}
</style>
<g>
	<g>
		<path class="st0" d="M5.85,25.4l0.55-0.71c0.39,0.28,0.78,0.55,1.22,0.78l-0.45,0.78C6.69,25.99,6.27,25.71,5.85,25.4L5.85,25.4z
			 M4.69,23.13c0.32,0.35,0.67,0.69,1.02,1.02l-0.6,0.66C4.72,24.47,4.34,24.1,4,23.73L4.69,23.13z M7.98,26.7l0.39-0.78
			c0.43,0.21,0.88,0.39,1.34,0.56l-0.29,0.84C8.93,27.13,8.45,26.92,7.98,26.7L7.98,26.7z M10.31,27.58l0.24-0.85
			c0.46,0.13,0.95,0.22,1.41,0.28l-0.13,0.88C11.32,27.8,10.82,27.71,10.31,27.58L10.31,27.58z M3.32,21.27
			c0.24,0.41,0.5,0.8,0.78,1.19l-0.71,0.55c-0.32-0.41-0.6-0.84-0.88-1.29L3.32,21.27z M2.37,19.17c0.17,0.45,0.35,0.9,0.56,1.33
			l-0.78,0.39c-0.24-0.46-0.45-0.94-0.63-1.41L2.37,19.17z M12.78,27.99l0.06-0.9h0.78v0.9H12.78z M14.05,2.65
			c6.99,0.13,12.56,5.9,12.43,12.88c-0.13,6.98-5.9,12.56-12.88,12.43v-0.9c5.53,0.13,10.1-4.25,10.22-9.76
			c0.13-5.53-4.25-10.1-9.76-10.22v2.24c0,0.17-0.1,0.32-0.24,0.39c-0.15,0.1-0.32,0.1-0.46,0L6.17,5.26
			C6.05,5.19,5.96,5.03,5.96,4.88c0-0.15,0.07-0.29,0.21-0.38l7.19-4.43c0.15-0.07,0.32-0.07,0.46,0c0.14,0.07,0.22,0.22,0.24,0.39
			L14.05,2.65z M14.05,2.65"/>
	</g>
</g>
</svg>
