<?xml version="1.0" encoding="utf-8"?>
<!-- Generator: Adobe Illustrator 25.2.3, SVG Export Plug-In . SVG Version: 6.00 Build 0)  -->
<svg version="1.1" id="图层_1" xmlns="http://www.w3.org/2000/svg" xmlns:xlink="http://www.w3.org/1999/xlink" x="0px" y="0px"
	 viewBox="0 0 32 32" style="enable-background:new 0 0 32 32;" xml:space="preserve">
<style type="text/css">
	.st0{fill:#23B8FD;}
</style>
<g>
	<g>
		<path class="st0" d="M16,0C7.16,0,0,7.16,0,16c0,8.84,7.16,16,16,16c8.84,0,16-7.16,16-16C32,7.16,24.84,0,16,0L16,0z
			 M18.68,22.25c-1.29,1.89-2.61,3.35-4.82,3.35c-1.51-0.24-2.13-1.3-1.8-2.37l2.84-9.2c0.07-0.23-0.05-0.47-0.26-0.54
			c-0.21-0.07-0.62,0.19-0.98,0.57l-1.72,2.02c-0.05-0.34,0-0.9,0-1.13c1.29-1.89,3.41-3.39,4.85-3.39
			c1.37,0.14,2.02,1.21,1.78,2.38l-2.86,9.25c-0.04,0.21,0.07,0.42,0.27,0.49c0.21,0.07,0.65-0.19,1.01-0.57l1.72-2.02
			C18.76,21.42,18.68,22.02,18.68,22.25L18.68,22.25z M18.3,10.23c-1.09,0-1.97-0.77-1.97-1.91c0-1.14,0.88-1.91,1.97-1.91
			c1.09,0,1.97,0.77,1.97,1.91C20.27,9.45,19.38,10.23,18.3,10.23L18.3,10.23z M18.3,10.23"/>
		<path class="st0" d="M16,0C7.16,0,0,7.16,0,16c0,8.84,7.16,16,16,16c8.84,0,16-7.16,16-16C32,7.16,24.84,0,16,0L16,0z
			 M18.68,22.25c-1.29,1.89-2.61,3.35-4.82,3.35c-1.51-0.24-2.13-1.3-1.8-2.37l2.84-9.2c0.07-0.23-0.05-0.47-0.26-0.54
			c-0.21-0.07-0.62,0.19-0.98,0.57l-1.72,2.02c-0.05-0.34,0-0.9,0-1.13c1.29-1.89,3.41-3.39,4.85-3.39
			c1.37,0.14,2.02,1.21,1.78,2.38l-2.86,9.25c-0.04,0.21,0.07,0.42,0.27,0.49c0.21,0.07,0.65-0.19,1.01-0.57l1.72-2.02
			C18.76,21.42,18.68,22.02,18.68,22.25L18.68,22.25z M18.3,10.23c-1.09,0-1.97-0.77-1.97-1.91c0-1.14,0.88-1.91,1.97-1.91
			c1.09,0,1.97,0.77,1.97,1.91C20.27,9.45,19.38,10.23,18.3,10.23L18.3,10.23z M18.3,10.23"/>
	</g>
</g>
</svg>
