<?xml version="1.0" encoding="utf-8"?>
<!-- Generator: Adobe Illustrator 25.2.3, SVG Export Plug-In . SVG Version: 6.00 Build 0)  -->
<svg version="1.1" id="图层_1" xmlns="http://www.w3.org/2000/svg" xmlns:xlink="http://www.w3.org/1999/xlink" x="0px" y="0px"
	 viewBox="0 0 32 32" style="enable-background:new 0 0 32 32;" xml:space="preserve">
<style type="text/css">
	.st0{fill:#1CBA4C;}
</style>
<g>
	<g>
		<path class="st0" d="M32,16.2C32,24.84,24.84,32,15.8,32C7.16,32,0,24.84,0,16.2C0,7.16,7.16,0,15.8,0C24.84,0,32,7.16,32,16.2
			L32,16.2z M8.13,17.21l4.92,5.09c0.21,0.21,0.55,0.22,0.76,0.01l11.05-10.87c0.05-0.05,0.08-0.12,0.08-0.19
			c0-0.07-0.03-0.14-0.08-0.19l-0.54-0.54c-0.11-0.11-0.28-0.11-0.4-0.02L13.84,18.9c-0.23,0.19-0.61,0.2-0.85,0.02l-3.92-3
			c-0.06-0.04-0.13-0.06-0.2-0.05c-0.07,0.01-0.13,0.05-0.18,0.11L8.1,16.8C8.01,16.92,8.02,17.1,8.13,17.21L8.13,17.21z
			 M8.13,17.21"/>
	</g>
</g>
</svg>
